# Capture timestamp (UTC): 2025-11-09T10:39:57Z
# Stream URL: http://localhost:8080/hls/index.m3u8
# Command: ffmpeg -y -i "http://localhost:8080/hls/index.m3u8" -t 10 -c copy /tmp/streaming-lab-ffplay-RwuUqx.ts
[hls @ 0x63cd4b090f00] Skip ('#EXT-X-VERSION:6')
[hls @ 0x63cd4b090f00] Skip ('#EXT-X-INDEPENDENT-SEGMENTS')
[hls @ 0x63cd4b090f00] Skip ('#EXT-X-PROGRAM-DATE-TIME:2025-11-09T10:39:37.667+0000')
[hls @ 0x63cd4b090f00] Skip ('#EXT-X-PROGRAM-DATE-TIME:2025-11-09T10:39:39.667+0000')
[hls @ 0x63cd4b090f00] Skip ('#EXT-X-PROGRAM-DATE-TIME:2025-11-09T10:39:41.667+0000')
[hls @ 0x63cd4b090f00] Skip ('#EXT-X-PROGRAM-DATE-TIME:2025-11-09T10:39:43.667+0000')
[hls @ 0x63cd4b090f00] Skip ('#EXT-X-PROGRAM-DATE-TIME:2025-11-09T10:39:45.667+0000')
[hls @ 0x63cd4b090f00] Skip ('#EXT-X-PROGRAM-DATE-TIME:2025-11-09T10:39:47.667+0000')
[hls @ 0x63cd4b090f00] Skip ('#EXT-X-PROGRAM-DATE-TIME:2025-11-09T10:39:49.667+0000')
[hls @ 0x63cd4b090f00] Skip ('#EXT-X-PROGRAM-DATE-TIME:2025-11-09T10:39:51.667+0000')
[hls @ 0x63cd4b090f00] Skip ('#EXT-X-PROGRAM-DATE-TIME:2025-11-09T10:39:53.667+0000')
[hls @ 0x63cd4b090f00] Skip ('#EXT-X-PROGRAM-DATE-TIME:2025-11-09T10:39:55.667+0000')
[hls @ 0x63cd4b090f00] Opening 'http://localhost:8080/hls/seg_97327.ts' for reading
[hls @ 0x63cd4b090f00] Opening 'http://localhost:8080/hls/seg_97328.ts' for reading
Input #0, hls, from 'http://localhost:8080/hls/index.m3u8':
  Duration: N/A, start: 81.402667, bitrate: N/A
  Program 0 
    Metadata:
      variant_bitrate : 0
  Stream #0:0: Video: h264 (High) ([27][0][0][0] / 0x001B), yuv420p, 1280x720 [SAR 1:1 DAR 16:9], 30 fps, 30 tbr, 90k tbn
    Metadata:
      variant_bitrate : 0
  Stream #0:1: Audio: aac (LC) ([15][0][0][0] / 0x000F), 48000 Hz, mono, fltp
    Metadata:
      variant_bitrate : 0
Output #0, mpegts, to '/tmp/streaming-lab-ffplay-RwuUqx.ts':
  Metadata:
    encoder         : Lavf60.16.100
  Stream #0:0: Video: h264 (High) ([27][0][0][0] / 0x001B), yuv420p, 1280x720 [SAR 1:1 DAR 16:9], q=2-31, 30 fps, 30 tbr, 90k tbn
    Metadata:
      variant_bitrate : 0
  Stream #0:1: Audio: aac (LC) ([15][0][0][0] / 0x000F), 48000 Hz, mono, fltp
    Metadata:
      variant_bitrate : 0
Stream mapping:
  Stream #0:0 -> #0:0 (copy)
  Stream #0:1 -> #0:1 (copy)
Press [q] to stop, [?] for help
size=       0kB time=-00:00:00.00 bitrate=  -0.0kbits/s speed=N/A    [http @ 0x63cd4b0a1100] Opening 'http://localhost:8080/hls/seg_97329.ts' for reading
[hls @ 0x63cd4b090f00] Skip ('#EXT-X-VERSION:6')
[hls @ 0x63cd4b090f00] Skip ('#EXT-X-INDEPENDENT-SEGMENTS')
[hls @ 0x63cd4b090f00] Skip ('#EXT-X-PROGRAM-DATE-TIME:2025-11-09T10:39:39.667+0000')
[hls @ 0x63cd4b090f00] Skip ('#EXT-X-PROGRAM-DATE-TIME:2025-11-09T10:39:41.667+0000')
[hls @ 0x63cd4b090f00] Skip ('#EXT-X-PROGRAM-DATE-TIME:2025-11-09T10:39:43.667+0000')
[hls @ 0x63cd4b090f00] Skip ('#EXT-X-PROGRAM-DATE-TIME:2025-11-09T10:39:45.667+0000')
[hls @ 0x63cd4b090f00] Skip ('#EXT-X-PROGRAM-DATE-TIME:2025-11-09T10:39:47.667+0000')
[hls @ 0x63cd4b090f00] Skip ('#EXT-X-PROGRAM-DATE-TIME:2025-11-09T10:39:49.667+0000')
[hls @ 0x63cd4b090f00] Skip ('#EXT-X-PROGRAM-DATE-TIME:2025-11-09T10:39:51.667+0000')
[hls @ 0x63cd4b090f00] Skip ('#EXT-X-PROGRAM-DATE-TIME:2025-11-09T10:39:53.667+0000')
[hls @ 0x63cd4b090f00] Skip ('#EXT-X-PROGRAM-DATE-TIME:2025-11-09T10:39:55.667+0000')
[hls @ 0x63cd4b090f00] Skip ('#EXT-X-PROGRAM-DATE-TIME:2025-11-09T10:39:57.667+0000')
[http @ 0x63cd4b0a1100] Opening 'http://localhost:8080/hls/seg_97330.ts' for reading
size=    1792kB time=00:00:05.99 bitrate=2448.9kbits/s speed=3.01x    [http @ 0x7abef4009900] Opening 'http://localhost:8080/hls/index.m3u8' for reading
[hls @ 0x63cd4b090f00] Skip ('#EXT-X-VERSION:6')
[hls @ 0x63cd4b090f00] Skip ('#EXT-X-INDEPENDENT-SEGMENTS')
[hls @ 0x63cd4b090f00] Skip ('#EXT-X-PROGRAM-DATE-TIME:2025-11-09T10:39:41.667+0000')
[hls @ 0x63cd4b090f00] Skip ('#EXT-X-PROGRAM-DATE-TIME:2025-11-09T10:39:43.667+0000')
[hls @ 0x63cd4b090f00] Skip ('#EXT-X-PROGRAM-DATE-TIME:2025-11-09T10:39:45.667+0000')
[hls @ 0x63cd4b090f00] Skip ('#EXT-X-PROGRAM-DATE-TIME:2025-11-09T10:39:47.667+0000')
[hls @ 0x63cd4b090f00] Skip ('#EXT-X-PROGRAM-DATE-TIME:2025-11-09T10:39:49.667+0000')
[hls @ 0x63cd4b090f00] Skip ('#EXT-X-PROGRAM-DATE-TIME:2025-11-09T10:39:51.667+0000')
[hls @ 0x63cd4b090f00] Skip ('#EXT-X-PROGRAM-DATE-TIME:2025-11-09T10:39:53.667+0000')
[hls @ 0x63cd4b090f00] Skip ('#EXT-X-PROGRAM-DATE-TIME:2025-11-09T10:39:55.667+0000')
[hls @ 0x63cd4b090f00] Skip ('#EXT-X-PROGRAM-DATE-TIME:2025-11-09T10:39:57.667+0000')
[hls @ 0x63cd4b090f00] Skip ('#EXT-X-PROGRAM-DATE-TIME:2025-11-09T10:39:59.667+0000')
[http @ 0x63cd4b0a1100] Opening 'http://localhost:8080/hls/seg_97331.ts' for reading
size=    2560kB time=00:00:07.97 bitrate=2628.4kbits/s speed=1.96x    [http @ 0x7abef4009900] Opening 'http://localhost:8080/hls/index.m3u8' for reading
[hls @ 0x63cd4b090f00] Skip ('#EXT-X-VERSION:6')
[hls @ 0x63cd4b090f00] Skip ('#EXT-X-INDEPENDENT-SEGMENTS')
[hls @ 0x63cd4b090f00] Skip ('#EXT-X-PROGRAM-DATE-TIME:2025-11-09T10:39:43.667+0000')
[hls @ 0x63cd4b090f00] Skip ('#EXT-X-PROGRAM-DATE-TIME:2025-11-09T10:39:45.667+0000')
[hls @ 0x63cd4b090f00] Skip ('#EXT-X-PROGRAM-DATE-TIME:2025-11-09T10:39:47.667+0000')
[hls @ 0x63cd4b090f00] Skip ('#EXT-X-PROGRAM-DATE-TIME:2025-11-09T10:39:49.667+0000')
[hls @ 0x63cd4b090f00] Skip ('#EXT-X-PROGRAM-DATE-TIME:2025-11-09T10:39:51.667+0000')
[hls @ 0x63cd4b090f00] Skip ('#EXT-X-PROGRAM-DATE-TIME:2025-11-09T10:39:53.667+0000')
[hls @ 0x63cd4b090f00] Skip ('#EXT-X-PROGRAM-DATE-TIME:2025-11-09T10:39:55.667+0000')
[hls @ 0x63cd4b090f00] Skip ('#EXT-X-PROGRAM-DATE-TIME:2025-11-09T10:39:57.667+0000')
[hls @ 0x63cd4b090f00] Skip ('#EXT-X-PROGRAM-DATE-TIME:2025-11-09T10:39:59.667+0000')
[hls @ 0x63cd4b090f00] Skip ('#EXT-X-PROGRAM-DATE-TIME:2025-11-09T10:40:01.667+0000')
[http @ 0x63cd4b0a1100] Opening 'http://localhost:8080/hls/seg_97332.ts' for reading
size=    3072kB time=00:00:09.98 bitrate=2520.6kbits/s speed=1.63x    [out#0/mpegts @ 0x63cd4b127a80] video:3060kB audio:159kB subtitle:0kB other streams:0kB global headers:0kB muxing overhead: 4.766668%
size=    3373kB time=00:00:09.99 bitrate=2763.9kbits/s speed=1.63x    

# ffprobe summary
[STREAM]
index=0
codec_name=h264
codec_long_name=H.264 / AVC / MPEG-4 AVC / MPEG-4 part 10
profile=High
codec_type=video
codec_tag_string=[27][0][0][0]
codec_tag=0x001b
width=1280
height=720
coded_width=1280
coded_height=720
closed_captions=0
film_grain=0
has_b_frames=2
sample_aspect_ratio=1:1
display_aspect_ratio=16:9
pix_fmt=yuv420p
level=31
color_range=unknown
color_space=unknown
color_transfer=unknown
color_primaries=unknown
chroma_location=left
field_order=progressive
refs=1
is_avc=false
nal_length_size=0
ts_packetsize=188
id=0x100
r_frame_rate=30/1
avg_frame_rate=30/1
time_base=1/90000
start_pts=132000
start_time=1.466667
duration_ts=903000
duration=10.033333
bit_rate=N/A
max_bit_rate=N/A
bits_per_raw_sample=8
nb_frames=N/A
nb_read_frames=N/A
nb_read_packets=N/A
extradata_size=38
DISPOSITION:default=0
DISPOSITION:dub=0
DISPOSITION:original=0
DISPOSITION:comment=0
DISPOSITION:lyrics=0
DISPOSITION:karaoke=0
DISPOSITION:forced=0
DISPOSITION:hearing_impaired=0
DISPOSITION:visual_impaired=0
DISPOSITION:clean_effects=0
DISPOSITION:attached_pic=0
DISPOSITION:timed_thumbnails=0
DISPOSITION:non_diegetic=0
DISPOSITION:captions=0
DISPOSITION:descriptions=0
DISPOSITION:metadata=0
DISPOSITION:dependent=0
DISPOSITION:still_image=0
[/STREAM]
[STREAM]
index=1
codec_name=aac
codec_long_name=AAC (Advanced Audio Coding)
profile=LC
codec_type=audio
codec_tag_string=[15][0][0][0]
codec_tag=0x000f
sample_fmt=fltp
sample_rate=48000
channels=1
channel_layout=mono
bits_per_sample=0
initial_padding=0
ts_packetsize=188
id=0x101
r_frame_rate=0/0
avg_frame_rate=0/0
time_base=1/90000
start_pts=126240
start_time=1.402667
duration_ts=892800
duration=9.920000
bit_rate=131150
max_bit_rate=N/A
bits_per_raw_sample=N/A
nb_frames=N/A
nb_read_frames=N/A
nb_read_packets=N/A
DISPOSITION:default=0
DISPOSITION:dub=0
DISPOSITION:original=0
DISPOSITION:comment=0
DISPOSITION:lyrics=0
DISPOSITION:karaoke=0
DISPOSITION:forced=0
DISPOSITION:hearing_impaired=0
DISPOSITION:visual_impaired=0
DISPOSITION:clean_effects=0
DISPOSITION:attached_pic=0
DISPOSITION:timed_thumbnails=0
DISPOSITION:non_diegetic=0
DISPOSITION:captions=0
DISPOSITION:descriptions=0
DISPOSITION:metadata=0
DISPOSITION:dependent=0
DISPOSITION:still_image=0
[/STREAM]
[FORMAT]
filename=/tmp/streaming-lab-ffplay-RwuUqx.ts
nb_streams=2
nb_programs=1
format_name=mpegts
format_long_name=MPEG-TS (MPEG-2 Transport Stream)
start_time=1.402667
duration=10.097333
size=3453936
bit_rate=2736513
probe_score=50
[/FORMAT]
